# Blender 3.3.21
# www.blender.org
mtllib pallet.mtl
o Cube.009
v 0.143892 -0.028775 0.072757
v 0.144197 0.026904 0.072871
v -0.143806 -0.027201 0.073555
v -0.143501 0.028479 0.073670
v 0.144046 -0.028891 0.128437
v 0.144351 0.026789 0.128552
v -0.143652 -0.027316 0.129236
v -0.143347 0.028363 0.129350
v 0.143710 -0.028638 0.006762
v 0.144015 0.027041 0.006877
v -0.143988 -0.027064 0.007561
v -0.143683 0.028616 0.007676
v 0.143864 -0.028754 0.062442
v 0.144169 0.026926 0.062557
v -0.143834 -0.027179 0.063241
v -0.143529 0.028500 0.063356
v 0.143527 -0.028501 -0.059232
v 0.143832 0.027178 -0.059118
v -0.144171 -0.026927 -0.058434
v -0.143866 0.028753 -0.058319
v 0.143681 -0.028617 -0.003552
v 0.143986 0.027063 -0.003437
v -0.144017 -0.027042 -0.002753
v -0.143712 0.028637 -0.002639
v 0.143345 -0.028364 -0.125227
v 0.143650 0.027315 -0.125112
v -0.144353 -0.026790 -0.124428
v -0.144048 0.028890 -0.124313
v 0.143499 -0.028480 -0.069547
v 0.143804 0.027200 -0.069432
v -0.144199 -0.026905 -0.068748
v -0.143894 0.028774 -0.068633
v 0.087574 -0.029817 0.133674
v 0.086848 -0.029273 -0.128879
v 0.108409 -0.029931 0.133616
v 0.107683 -0.029387 -0.128937
v -0.109043 -0.028741 0.134220
v -0.109769 -0.028197 -0.128334
v -0.088207 -0.028855 0.134162
v -0.088933 -0.028311 -0.128391
v 0.087894 0.028667 0.133794
v 0.087168 0.029212 -0.128759
v 0.108729 0.028553 0.133736
v 0.108003 0.029098 -0.128817
v -0.108722 0.029743 0.134340
v -0.109448 0.030288 -0.128213
v -0.087887 0.029629 0.134282
v -0.088613 0.030174 -0.128271
vn -0.0028 0.0021 -1.0000
vn -1.0000 0.0055 0.0028
vn 0.0028 -0.0021 1.0000
vn 1.0000 -0.0055 -0.0028
vn -0.0055 -1.0000 -0.0021
vn 0.0055 1.0000 0.0021
vn 0.0027 -0.0021 1.0000
vt 0.375000 1.000000
vt 1.000000 1.000000
vt 0.625000 1.000000
vt 1.000000 0.000000
vt 0.000000 1.000000
vt 0.375000 0.250000
vt 1.000000 0.000000
vt 0.000000 0.000000
vt 0.625000 0.250000
vt 1.000000 1.000000
vt 1.000000 1.000000
vt 0.375000 0.750000
vt 0.000000 1.000000
vt 1.000000 0.000000
vt 0.625000 0.750000
vt 0.000000 0.000000
vt 0.375000 0.500000
vt 0.000000 1.000000
vt 0.000000 0.000000
vt 0.625000 0.500000
vt 0.000000 0.000000
vt 0.000000 1.000000
vt 0.375000 1.000000
vt 1.000000 1.000000
vt 0.625000 1.000000
vt 1.000000 0.000000
vt 0.000000 1.000000
vt 0.375000 0.250000
vt 1.000000 0.000000
vt 0.000000 0.000000
vt 0.625000 0.250000
vt 1.000000 1.000000
vt 1.000000 1.000000
vt 0.375000 0.750000
vt 0.000000 1.000000
vt 1.000000 0.000000
vt 0.625000 0.750000
vt 0.000000 0.000000
vt 0.375000 0.500000
vt 0.000000 1.000000
vt 0.000000 0.000000
vt 0.625000 0.500000
vt 0.000000 0.000000
vt 0.000000 1.000000
vt 0.375000 1.000000
vt 1.000000 1.000000
vt 0.625000 1.000000
vt 1.000000 0.000000
vt 0.000000 1.000000
vt 0.375000 0.250000
vt 1.000000 0.000000
vt 0.000000 0.000000
vt 0.625000 0.250000
vt 1.000000 1.000000
vt 1.000000 1.000000
vt 0.375000 0.750000
vt 0.000000 1.000000
vt 1.000000 0.000000
vt 0.625000 0.750000
vt 0.000000 0.000000
vt 0.375000 0.500000
vt 0.000000 1.000000
vt 0.000000 0.000000
vt 0.625000 0.500000
vt 0.000000 0.000000
vt 0.000000 1.000000
vt 0.375000 1.000000
vt 1.000000 1.000000
vt 0.625000 1.000000
vt 1.000000 0.000000
vt 0.000000 1.000000
vt 0.375000 0.250000
vt 1.000000 0.000000
vt 0.000000 0.000000
vt 0.625000 0.250000
vt 1.000000 1.000000
vt 1.000000 1.000000
vt 0.375000 0.750000
vt 0.000000 1.000000
vt 1.000000 0.000000
vt 0.625000 0.750000
vt 0.000000 0.000000
vt 0.375000 0.500000
vt 0.000000 1.000000
vt 0.000000 0.000000
vt 0.625000 0.500000
vt 0.000000 0.000000
vt 0.000000 1.000000
vt 0.000000 0.000000
vt 1.000000 0.000000
vt 0.000000 1.000000
vt 1.000000 1.000000
vt 0.000000 0.000000
vt 1.000000 0.000000
vt 0.000000 1.000000
vt 1.000000 1.000000
vt 0.000000 0.000000
vt 1.000000 0.000000
vt 0.000000 1.000000
vt 1.000000 1.000000
vt 0.000000 0.000000
vt 1.000000 0.000000
vt 0.000000 1.000000
vt 1.000000 1.000000
s 0
usemtl Material.003
f 1/2/1 3/5/1 4/8/1 2/4/1
f 3/6/2 7/17/2 8/20/2 4/9/2
f 7/18/3 5/11/3 6/14/3 8/21/3
f 5/12/4 1/1/4 2/3/4 6/15/4
f 3/7/5 1/2/5 5/13/5 7/19/5
f 8/22/6 6/16/6 2/4/6 4/10/6
f 9/24/1 11/27/1 12/30/1 10/26/1
f 11/28/2 15/39/2 16/42/2 12/31/2
f 15/40/3 13/33/3 14/36/3 16/43/3
f 13/34/4 9/23/4 10/25/4 14/37/4
f 11/29/5 9/24/5 13/35/5 15/41/5
f 16/44/6 14/38/6 10/26/6 12/32/6
f 17/46/1 19/49/1 20/52/1 18/48/1
f 19/50/2 23/61/2 24/64/2 20/53/2
f 23/62/3 21/55/3 22/58/3 24/65/3
f 21/56/4 17/45/4 18/47/4 22/59/4
f 19/51/5 17/46/5 21/57/5 23/63/5
f 24/66/6 22/60/6 18/48/6 20/54/6
f 25/68/1 27/71/1 28/74/1 26/70/1
f 27/72/2 31/83/2 32/86/2 28/75/2
f 31/84/3 29/77/3 30/80/3 32/87/3
f 29/78/4 25/67/4 26/69/4 30/81/4
f 27/73/5 25/68/5 29/79/5 31/85/5
f 32/88/6 30/82/6 26/70/6 28/76/6
usemtl Material.004
f 33/89/6 35/91/6 36/92/6 34/90/6
f 37/93/6 39/95/6 40/96/6 38/94/6
f 41/97/6 43/99/6 44/100/6 42/98/6
f 45/101/6 47/103/6 48/104/6 46/102/6
f 39/95/1 37/93/1 45/101/1 47/103/1
f 35/91/1 33/89/1 41/97/1 43/99/1
f 34/90/3 36/92/3 44/100/3 42/98/3
f 38/94/7 40/96/7 48/104/7 46/102/7
