# Blender 3.5.0
# www.blender.org
mtllib rock_big.mtl
o rock_big
v -110.721901 0.000005 62.788288
v -120.187798 -0.000002 -26.800940
v -131.369598 50.974037 76.568153
v -147.718002 50.974026 -34.676552
v -135.232590 146.808197 -38.820839
v -123.742897 48.897732 -95.782738
v -108.797005 165.605591 -67.611946
v -67.679771 131.161377 -137.601807
v -72.561272 279.137299 -35.089203
v -72.561272 279.137299 -35.089203
v -67.679771 131.161377 -137.601807
v -10.322980 274.162598 -46.962517
v 15.909650 130.065582 -127.924202
v 56.813358 193.487015 -30.959017
v 103.431198 143.959793 -72.258163
v 115.457596 143.873291 -17.459782
v 150.170898 26.414368 -13.945922
v -96.711105 -0.000006 -77.320435
v -120.187798 -0.000002 -26.800940
v -59.697517 -0.000009 -121.109795
v 0.792649 -0.000001 -18.968090
v 29.144779 -0.000009 -125.379799
v 122.640594 -0.000001 -13.945930
v 114.567894 -0.000006 -74.805328
v 86.640091 0.000006 85.999420
v -59.697548 0.000009 121.109795
v 100.405197 28.841156 113.559097
v -73.462685 44.361832 148.669495
v -68.452705 123.142403 136.953888
v -131.369598 50.974037 76.568153
v -113.240295 167.858200 59.830708
v -59.697517 -0.000009 -121.109795
v 29.144779 -0.000009 -125.379799
v -72.728577 43.417198 -148.669495
v 36.982910 34.914387 -152.064011
v 132.252090 30.095644 -88.147461
v 122.640594 -0.000001 -13.945930
v -80.713051 263.506378 33.170059
v -113.240295 167.858200 59.830708
v -110.721901 0.000005 62.788288
v -59.697548 0.000009 121.109795
v 86.640091 0.000006 85.999420
v 6.256642 248.026596 73.064819
v -43.019688 271.819885 63.379128
v -30.781139 302.911407 8.669641
v -80.713051 263.506378 33.170059
v -72.561272 279.137299 -35.089203
v -43.019688 271.819885 63.379128
v 6.256642 248.026596 73.064819
v 52.796467 171.198090 89.189255
v -110.721901 0.000005 62.788288
v 114.567894 -0.000006 -74.805328
v 23.389780 279.830292 -19.855120
v -10.322980 274.162598 -46.962517
v -59.697517 -0.000009 -121.109795
v -96.711105 -0.000006 -77.320435
v -72.728577 43.417198 -148.669495
v 115.457596 143.873291 -17.459782
v 150.170898 26.414368 -13.945922
v 100.405197 28.841156 113.559097
v 86.640091 0.000006 85.999420
v 56.813358 193.487015 -30.959017
v 52.796467 171.198090 89.189255
v 23.389780 279.830292 -19.855120
v 6.256642 248.026596 73.064819
v 23.389780 279.830292 -19.855120
v 122.640594 -0.000001 -13.945930
v -113.240295 167.858200 59.830708
v -80.713051 263.506378 33.170059
v -43.019688 271.819885 63.379128
vn -0.9174 -0.0463 0.3952
vn -0.4955 -0.8664 -0.0621
vn -0.4673 -0.8622 0.1957
vn -0.9742 -0.1924 -0.1176
vn -0.9373 0.3182 -0.1422
vn -0.8307 -0.0638 -0.5530
vn -0.8499 0.4091 -0.3320
vn -0.3329 0.3531 -0.8743
vn -0.5607 0.7066 -0.4317
vn 0.1737 0.7070 -0.6855
vn -0.3330 0.3531 -0.8743
vn -0.5606 0.7067 -0.4317
vn 0.3388 0.4739 -0.8128
vn 0.7357 0.6602 -0.1511
vn 0.7086 0.4807 -0.5165
vn 0.8477 0.5165 0.1211
vn 0.9935 -0.1137 0.0082
vn -0.1986 -0.8978 -0.3931
vn -0.5363 -0.7775 -0.3285
vn -0.0000 -1.0000 -0.0000
vn 0.1037 -0.8976 -0.4284
vn 0.4028 -0.9148 0.0303
vn 0.4410 -0.8385 -0.3202
vn 0.6355 -0.0513 0.7704
vn -0.1586 -0.9056 0.3933
vn 0.2398 -0.9230 0.3011
vn -0.3392 -0.2491 0.9071
vn -0.2432 0.3171 0.9167
vn -0.8338 0.4194 0.3591
vn -0.4081 -0.2486 -0.8784
vn 0.1036 -0.8976 -0.4284
vn 0.2796 -0.0382 -0.9594
vn 0.8001 -0.2140 -0.5604
vn -0.7814 0.5790 0.2327
vn -0.4673 -0.8621 0.1958
vn -0.1586 -0.9057 0.3932
vn -0.0169 0.9951 0.0975
vn -0.3208 0.6472 0.6916
vn 0.5344 0.6070 0.5882
vn 0.6363 0.5096 0.5792
vn 0.6783 0.7252 -0.1183
vn -0.4081 -0.2486 -0.8785
vn 0.6354 -0.0513 0.7705
vn 0.8477 0.5164 0.1211
vn 0.6363 0.5095 0.5792
vn 0.5344 0.6070 0.5881
vt 0.996094 0.000000
vt 0.554688 0.000000
vt 0.972656 0.097656
vt 0.550781 0.171875
vt 0.519531 0.515625
vt 0.285156 0.253906
vt 0.371094 0.597656
vt 0.007812 0.468750
vt 0.039062 0.972656
vt 0.945312 0.964844
vt 0.976562 0.488281
vt 0.578125 0.988281
vt 0.671875 0.460938
vt 0.031250 0.777344
vt 0.277344 0.542969
vt 0.039062 0.500000
vt 0.031250 0.312500
vt 0.000000 0.007812
vt 0.007812 0.308594
vt 0.500000 0.000000
vt 0.519531 0.472656
vt 1.003906 0.003906
vt 0.984375 0.828125
vt 0.996094 0.367188
vt 0.996094 0.007812
vt 0.339844 0.000000
vt 1.000000 0.101562
vt 0.335938 0.242188
vt 0.359375 0.593750
vt 0.007812 0.312500
vt 0.027344 0.519531
vt 0.996094 0.011719
vt 0.625000 0.003906
vt 0.972656 0.093750
vt 0.652344 0.156250
vt 0.335938 0.250000
vt 0.039062 0.007812
vt 0.945312 0.992188
vt 0.976562 0.574219
vt 0.019531 0.511719
vt 0.007812 1.000000
vt 0.996094 1.003906
vt 0.980469 0.355469
vt 0.511719 0.214844
vt 0.628906 0.687500
vt 0.003906 0.351562
vt 0.000000 0.996094
vt 0.046875 0.964844
vt 0.800781 0.980469
vt 0.984375 0.828125
vt 0.000000 0.000000
vt 0.332031 0.000000
vt 0.976562 0.820312
vt 0.976562 0.996094
vt 0.007812 0.015625
vt 0.320312 0.003906
vt 0.007812 0.300781
vt 1.007812 0.390625
vt 0.996094 0.093750
vt 0.000000 0.324219
vt -0.003906 0.003906
vt 1.000000 0.789062
vt 0.003906 0.492188
vt 0.898438 0.984375
vt 0.000000 0.972656
vt 0.042969 0.968750
vt 0.976562 0.000000
vt 0.507812 0.222656
vt 0.972656 0.378906
vt 0.964844 0.089844
s 1
usemtl lambert3
f 3/3/1 2/2/2 1/1/3
f 3/3/1 4/4/4 2/2/2
f 5/5/5 4/4/4 3/3/1
f 5/5/5 6/6/6 4/4/4
f 7/7/7 6/6/6 5/5/5
f 7/7/7 8/8/8 6/6/6
f 9/9/9 8/8/8 7/7/7
f 12/12/10 11/11/11 10/10/12
f 12/12/10 13/13/13 11/11/11
f 14/14/14 13/13/13 12/12/10
f 14/14/14 15/15/15 13/13/13
f 16/16/16 15/15/15 14/14/14
f 16/16/16 17/17/17 15/15/15
f 20/20/18 19/19/2 18/18/19
f 20/20/18 21/21/20 19/19/2
f 22/22/21 21/21/20 20/20/18
f 22/22/21 23/23/22 21/21/20
f 24/24/23 23/23/22 22/22/21
f 27/27/24 26/26/25 25/25/26
f 27/27/24 28/28/27 26/26/25
f 29/29/28 28/28/27 27/27/24
f 29/29/28 30/30/1 28/28/27
f 31/31/29 30/30/1 29/29/28
f 34/34/30 33/33/31 32/32/18
f 34/34/30 35/35/32 33/33/31
f 11/11/11 35/35/32 34/34/30
f 11/11/11 13/13/13 35/35/32
f 15/15/15 35/35/32 13/13/13
f 15/15/15 36/36/33 35/35/32
f 17/17/17 36/36/33 15/15/15
f 17/17/17 37/37/22 36/36/33
f 7/7/7 38/38/34 9/9/9
f 7/7/7 39/39/29 38/38/34
f 5/5/5 39/39/29 7/7/7
f 5/5/5 3/3/1 39/39/29
f 21/21/20 40/40/35 19/19/2
f 21/21/20 41/41/36 40/40/35
f 42/42/26 41/41/36 21/21/20
f 45/45/37 44/44/38 43/43/39
f 45/45/37 46/46/34 44/44/38
f 47/47/12 46/46/34 45/45/37
f 29/29/28 48/48/38 31/31/29
f 29/29/28 49/49/39 48/48/38
f 50/50/40 49/49/39 29/29/28
f 26/26/25 30/30/1 51/51/3
f 26/26/25 28/28/27 30/30/1
f 52/52/23 36/36/33 37/37/22
f 52/52/23 33/33/31 36/36/33
f 53/53/41 45/45/37 43/43/39
f 53/53/41 54/54/10 45/45/37
f 56/56/19 6/6/6 55/55/18
f 56/56/19 2/2/2 6/6/6
f 57/57/42 6/6/6 8/8/8
f 57/57/42 55/55/18 6/6/6
f 60/60/43 59/59/17 58/58/44
f 60/60/43 61/61/26 59/59/17
f 63/63/45 58/58/44 62/62/14
f 63/63/45 60/60/43 58/58/44
f 65/65/46 62/62/14 64/64/41
f 65/65/46 63/63/45 62/62/14
f 36/36/33 33/33/31 35/35/32
f 6/6/6 2/2/2 4/4/4
f 45/45/37 54/54/10 47/47/12
f 14/14/14 12/12/10 66/66/41
f 23/23/22 42/42/26 21/21/20
f 61/61/26 67/67/22 59/59/17
f 50/50/40 29/29/28 27/27/24
f 70/70/38 69/69/34 68/68/29
